<svg xmlns="http://www.w3.org/2000/svg" viewBox="0 0 512.009 512.009" style="enable-background:new 0 0 512.009 512.009" xml:space="preserve"><path d="M256.009 42.671h-.012c-70.671.003-134.648 28.637-180.967 74.935-.016.016-.034.029-.05.045-.017.017-.03.035-.047.052C28.688 163.976.072 227.867.011 298.445c0 .076-.011.15-.011.226 0 .073.01.143.011.215.05 60.201 20.962 117.239 58.515 162.704a21.332 21.332 0 0 0 16.448 7.748h362.048a21.332 21.332 0 0 0 16.448-7.748c37.607-45.53 58.539-102.65 58.539-162.919 0-141.382-114.618-256-256-256zm170.671 384H85.316c-23.281-30.977-37.712-67.661-41.583-106.667h62.934c11.782 0 21.333-9.551 21.333-21.333 0-11.782-9.551-21.333-21.333-21.333H43.734c4.259-42.905 21.23-82.066 47.091-113.671l14.32 14.32c8.331 8.331 21.839 8.331 30.17 0 8.331-8.331 8.331-21.839 0-30.17l-14.321-14.321c31.605-25.864 70.765-42.837 113.672-47.098v62.941c0 11.782 9.551 21.333 21.333 21.333 11.782 0 21.333-9.551 21.333-21.333V86.396c42.906 4.259 82.068 21.232 113.676 47.096l-14.325 14.325c-8.331 8.331-8.331 21.839 0 30.17 8.331 8.331 21.839 8.331 30.17 0l14.326-14.326c25.867 31.607 42.842 70.771 47.103 113.677h-62.95c-11.782 0-21.333 9.551-21.333 21.333 0 11.782 9.551 21.333 21.333 21.333h62.95c-3.873 38.997-18.312 75.682-41.602 106.667z"/><path d="M319.991 220.655 199.33 281.007l60.331 60.331zM320 362.671H192c-11.782 0-21.333 9.551-21.333 21.333s9.551 21.333 21.333 21.333h128c11.782 0 21.333-9.551 21.333-21.333s-9.551-21.333-21.333-21.333z"/></svg>