<svg xmlns="http://www.w3.org/2000/svg" viewBox="0 0 58 58" style="enable-background:new 0 0 58 58" xml:space="preserve"><path d="M9.5 43c-2.757 0-5 2.243-5 5s2.243 5 5 5 5-2.243 5-5-2.243-5-5-5z"/><path d="M56.5 35c0-2.495-1.375-3.662-2.715-4.233A4.992 4.992 0 0 0 55.5 27c0-2.757-2.243-5-5-5H36.134l.729-3.41c.973-4.549.334-9.716.116-11.191C36.461 3.906 33.372 0 30.013 0h-.239C28.178 0 25.5.909 25.5 7c0 14.821-6.687 15-7 15h-1v-2h-16v38h16v-2h28c2.757 0 5-2.243 5-5a4.98 4.98 0 0 0-1.069-3.087A5.008 5.008 0 0 0 53.5 43a4.98 4.98 0 0 0-1.069-3.087A5.008 5.008 0 0 0 56.5 35zm-53 21V22h12v34h-12z"/></svg>